<mxfile host="Electron" modified="2024-02-12T18:37:19.320Z" agent="Mozilla/5.0 (Windows NT 10.0; Win64; x64) AppleWebKit/537.36 (KHTML, like Gecko) draw.io/22.1.15 Chrome/120.0.6099.109 Electron/28.1.0 Safari/537.36" etag="f4humDor3_fZr5JQMUwC" version="22.1.15" type="device">
  <diagram name="Page-1" id="aUeoa37d_bXXGWIzyljh">
    <mxGraphModel dx="1257" dy="817" grid="1" gridSize="10" guides="1" tooltips="1" connect="1" arrows="1" fold="1" page="1" pageScale="1" pageWidth="850" pageHeight="1100" math="0" shadow="0">
      <root>
        <mxCell id="0" />
        <mxCell id="1" parent="0" />
        <mxCell id="hHeAZSEnx0nBbeL7fITp-128" style="edgeStyle=orthogonalEdgeStyle;rounded=0;orthogonalLoop=1;jettySize=auto;html=1;fontFamily=Roboto;" parent="1" source="hHeAZSEnx0nBbeL7fITp-1" target="hHeAZSEnx0nBbeL7fITp-12" edge="1">
          <mxGeometry relative="1" as="geometry">
            <Array as="points">
              <mxPoint x="130" y="140" />
              <mxPoint x="130" y="140" />
            </Array>
          </mxGeometry>
        </mxCell>
        <mxCell id="hHeAZSEnx0nBbeL7fITp-129" value="Information originates from" style="edgeLabel;html=1;align=center;verticalAlign=middle;resizable=0;points=[];fontFamily=Roboto;" parent="hHeAZSEnx0nBbeL7fITp-128" vertex="1" connectable="0">
          <mxGeometry relative="1" as="geometry">
            <mxPoint x="80" as="offset" />
          </mxGeometry>
        </mxCell>
        <mxCell id="hHeAZSEnx0nBbeL7fITp-1" value="&lt;div align=&quot;left&quot;&gt;&lt;br&gt;&lt;/div&gt;" style="rounded=0;whiteSpace=wrap;html=1;fontFamily=Roboto;fillColor=none;" parent="1" vertex="1">
          <mxGeometry x="40" y="149" width="660" height="450" as="geometry" />
        </mxCell>
        <mxCell id="hHeAZSEnx0nBbeL7fITp-2" value="Tropical cyclone event (type: cyclone)" style="text;html=1;strokeColor=none;fillColor=none;align=center;verticalAlign=middle;whiteSpace=wrap;rounded=0;fontFamily=Roboto;" parent="1" vertex="1">
          <mxGeometry x="40" y="570" width="220" height="30" as="geometry" />
        </mxCell>
        <mxCell id="hHeAZSEnx0nBbeL7fITp-12" value="" style="shape=image;verticalLabelPosition=bottom;labelBackgroundColor=default;verticalAlign=top;aspect=fixed;imageAspect=0;image=data:image/svg+xml,PHN2ZyB2aWV3Qm94PSIwIDAgNTEyIDUxMiIgeG1sbnM9Imh0dHA6Ly93d3cudzMub3JnLzIwMDAvc3ZnIj48cGF0aCBkPSJNMjQzLjQgMi42bC0yMjQgOTZjLTE0IDYtMjEuOCAyMS0xOC43IDM1LjhTMTYuOCAxNjAgMzIgMTYwdjhjMCAxMy4zIDEwLjcgMjQgMjQgMjRINDU2YzEzLjMgMCAyNC0xMC43IDI0LTI0di04YzE1LjIgMCAyOC4zLTEwLjcgMzEuMy0yNS42cy00LjgtMjkuOS0xOC43LTM1LjhsLTIyNC05NmMtOC0zLjQtMTcuMi0zLjQtMjUuMiAwek0xMjggMjI0SDY0VjQyMC4zYy0uNiAuMy0xLjIgLjctMS44IDEuMWwtNDggMzJjLTExLjcgNy44LTE3IDIyLjQtMTIuOSAzNS45UzE3LjkgNTEyIDMyIDUxMkg0ODBjMTQuMSAwIDI2LjUtOS4yIDMwLjYtMjIuN3MtMS4xLTI4LjEtMTIuOS0zNS45bC00OC0zMmMtLjYtLjQtMS4yLS43LTEuOC0xLjFWMjI0SDM4NFY0MTZIMzQ0VjIyNEgyODBWNDE2SDIzMlYyMjRIMTY4VjQxNkgxMjhWMjI0ek0yNTYgNjRhMzIgMzIgMCAxIDEgMCA2NCAzMiAzMiAwIDEgMSAwLTY0eiIvPjwvc3ZnPg==;imageBackground=default;fontFamily=Roboto;" parent="1" vertex="1">
          <mxGeometry x="100" y="60" width="60" height="60" as="geometry" />
        </mxCell>
        <mxCell id="hHeAZSEnx0nBbeL7fITp-15" style="edgeStyle=orthogonalEdgeStyle;rounded=0;orthogonalLoop=1;jettySize=auto;html=1;entryX=0;entryY=0.5;entryDx=0;entryDy=0;endArrow=none;endFill=0;strokeColor=#808080;fontFamily=Roboto;" parent="1" target="hHeAZSEnx0nBbeL7fITp-14" edge="1">
          <mxGeometry relative="1" as="geometry">
            <mxPoint x="70" y="340" as="sourcePoint" />
            <Array as="points">
              <mxPoint x="70" y="350" />
            </Array>
          </mxGeometry>
        </mxCell>
        <mxCell id="hHeAZSEnx0nBbeL7fITp-18" style="edgeStyle=orthogonalEdgeStyle;rounded=0;orthogonalLoop=1;jettySize=auto;html=1;entryX=0;entryY=0.5;entryDx=0;entryDy=0;endArrow=none;endFill=0;strokeColor=#808080;fontFamily=Roboto;" parent="1" target="hHeAZSEnx0nBbeL7fITp-16" edge="1">
          <mxGeometry relative="1" as="geometry">
            <mxPoint x="70" y="340" as="sourcePoint" />
            <Array as="points">
              <mxPoint x="70" y="370" />
            </Array>
          </mxGeometry>
        </mxCell>
        <mxCell id="hHeAZSEnx0nBbeL7fITp-19" style="edgeStyle=orthogonalEdgeStyle;rounded=0;orthogonalLoop=1;jettySize=auto;html=1;entryX=0;entryY=0.5;entryDx=0;entryDy=0;endArrow=none;endFill=0;strokeColor=#808080;fontFamily=Roboto;" parent="1" target="hHeAZSEnx0nBbeL7fITp-17" edge="1">
          <mxGeometry relative="1" as="geometry">
            <mxPoint x="70" y="340" as="sourcePoint" />
            <Array as="points">
              <mxPoint x="70" y="390" />
            </Array>
          </mxGeometry>
        </mxCell>
        <mxCell id="hHeAZSEnx0nBbeL7fITp-13" value="Disaster metadata" style="rounded=0;whiteSpace=wrap;html=1;fillColor=#fff2cc;strokeColor=#d6b656;fontFamily=Roboto;dashed=1;" parent="1" vertex="1">
          <mxGeometry x="60" y="300" width="140" height="40" as="geometry" />
        </mxCell>
        <mxCell id="hHeAZSEnx0nBbeL7fITp-14" value="&lt;div&gt;Disaster start time&lt;br&gt;&lt;/div&gt;" style="text;html=1;strokeColor=none;fillColor=none;align=left;verticalAlign=middle;whiteSpace=wrap;rounded=0;spacingLeft=8;fontColor=#808080;fontFamily=Roboto;" parent="1" vertex="1">
          <mxGeometry x="80" y="340" width="120" height="20" as="geometry" />
        </mxCell>
        <mxCell id="hHeAZSEnx0nBbeL7fITp-16" value="&lt;div&gt;Disaster end time&lt;br&gt;&lt;/div&gt;" style="text;html=1;strokeColor=none;fillColor=none;align=left;verticalAlign=middle;whiteSpace=wrap;rounded=0;spacingLeft=8;fontColor=#808080;fontFamily=Roboto;" parent="1" vertex="1">
          <mxGeometry x="80" y="360" width="120" height="20" as="geometry" />
        </mxCell>
        <mxCell id="hHeAZSEnx0nBbeL7fITp-17" value="&lt;div&gt;Disaster is current?&lt;br&gt;&lt;/div&gt;" style="text;html=1;strokeColor=none;fillColor=none;align=left;verticalAlign=middle;whiteSpace=wrap;rounded=0;spacingLeft=8;fontColor=#808080;fontFamily=Roboto;" parent="1" vertex="1">
          <mxGeometry x="80" y="380" width="120" height="20" as="geometry" />
        </mxCell>
        <mxCell id="hHeAZSEnx0nBbeL7fITp-66" style="edgeStyle=orthogonalEdgeStyle;rounded=0;orthogonalLoop=1;jettySize=auto;html=1;entryX=0;entryY=0.5;entryDx=0;entryDy=0;strokeColor=#808080;endArrow=none;endFill=0;fontFamily=Roboto;" parent="1" source="hHeAZSEnx0nBbeL7fITp-20" target="hHeAZSEnx0nBbeL7fITp-64" edge="1">
          <mxGeometry relative="1" as="geometry">
            <Array as="points">
              <mxPoint x="70" y="280" />
            </Array>
          </mxGeometry>
        </mxCell>
        <mxCell id="hHeAZSEnx0nBbeL7fITp-20" value="Peak information" style="rounded=0;whiteSpace=wrap;html=1;fillColor=#dae8fc;strokeColor=#6c8ebf;fontFamily=Roboto;" parent="1" vertex="1">
          <mxGeometry x="60" y="170" width="140" height="40" as="geometry" />
        </mxCell>
        <mxCell id="hHeAZSEnx0nBbeL7fITp-21" value="Current information" style="rounded=0;whiteSpace=wrap;html=1;fillColor=#dae8fc;strokeColor=#6c8ebf;fontFamily=Roboto;" parent="1" vertex="1">
          <mxGeometry x="220" y="170" width="140" height="40" as="geometry" />
        </mxCell>
        <mxCell id="hHeAZSEnx0nBbeL7fITp-77" style="edgeStyle=orthogonalEdgeStyle;rounded=0;orthogonalLoop=1;jettySize=auto;html=1;entryX=0;entryY=0.5;entryDx=0;entryDy=0;endArrow=none;endFill=0;strokeColor=#000000;fontFamily=Roboto;" parent="1" source="hHeAZSEnx0nBbeL7fITp-22" target="hHeAZSEnx0nBbeL7fITp-76" edge="1">
          <mxGeometry relative="1" as="geometry">
            <Array as="points">
              <mxPoint x="400" y="230" />
            </Array>
          </mxGeometry>
        </mxCell>
        <mxCell id="hHeAZSEnx0nBbeL7fITp-22" value="Forecast information" style="rounded=0;whiteSpace=wrap;html=1;fillColor=#dae8fc;strokeColor=#6c8ebf;fontFamily=Roboto;" parent="1" vertex="1">
          <mxGeometry x="380" y="170" width="140" height="40" as="geometry" />
        </mxCell>
        <mxCell id="hHeAZSEnx0nBbeL7fITp-39" style="edgeStyle=orthogonalEdgeStyle;rounded=0;orthogonalLoop=1;jettySize=auto;html=1;fontFamily=Roboto;" parent="1" source="hHeAZSEnx0nBbeL7fITp-23" target="hHeAZSEnx0nBbeL7fITp-33" edge="1">
          <mxGeometry relative="1" as="geometry">
            <Array as="points">
              <mxPoint x="620" y="140" />
              <mxPoint x="620" y="140" />
            </Array>
          </mxGeometry>
        </mxCell>
        <mxCell id="hHeAZSEnx0nBbeL7fITp-130" value="Missing information taken from" style="edgeLabel;html=1;align=center;verticalAlign=middle;resizable=0;points=[];fontFamily=Roboto;" parent="hHeAZSEnx0nBbeL7fITp-39" vertex="1" connectable="0">
          <mxGeometry x="0.36" y="2" relative="1" as="geometry">
            <mxPoint x="-88" as="offset" />
          </mxGeometry>
        </mxCell>
        <mxCell id="hHeAZSEnx0nBbeL7fITp-23" value="Archive information" style="rounded=0;whiteSpace=wrap;html=1;fillColor=#dae8fc;strokeColor=#6c8ebf;fontFamily=Roboto;" parent="1" vertex="1">
          <mxGeometry x="540" y="170" width="140" height="40" as="geometry" />
        </mxCell>
        <mxCell id="hHeAZSEnx0nBbeL7fITp-41" style="edgeStyle=orthogonalEdgeStyle;rounded=0;orthogonalLoop=1;jettySize=auto;html=1;fontFamily=Roboto;" parent="1" source="hHeAZSEnx0nBbeL7fITp-33" target="hHeAZSEnx0nBbeL7fITp-12" edge="1">
          <mxGeometry relative="1" as="geometry" />
        </mxCell>
        <mxCell id="hHeAZSEnx0nBbeL7fITp-42" value="Derives information from" style="edgeLabel;html=1;align=center;verticalAlign=middle;resizable=0;points=[];fontFamily=Roboto;" parent="hHeAZSEnx0nBbeL7fITp-41" vertex="1" connectable="0">
          <mxGeometry x="0.2278" y="1" relative="1" as="geometry">
            <mxPoint x="188" y="-11" as="offset" />
          </mxGeometry>
        </mxCell>
        <mxCell id="hHeAZSEnx0nBbeL7fITp-33" value="" style="shape=image;verticalLabelPosition=bottom;labelBackgroundColor=default;verticalAlign=top;aspect=fixed;imageAspect=0;image=data:image/svg+xml,PHN2ZyB2aWV3Qm94PSIwIDAgNTEyIDUxMiIgeG1sbnM9Imh0dHA6Ly93d3cudzMub3JnLzIwMDAvc3ZnIj48cGF0aCBkPSJNNjQgMzJDMjguNyAzMiAwIDYwLjcgMCA5NnY2NGMwIDM1LjMgMjguNyA2NCA2NCA2NEg0NDhjMzUuMyAwIDY0LTI4LjcgNjQtNjRWOTZjMC0zNS4zLTI4LjctNjQtNjQtNjRINjR6bTI4MCA3MmEyNCAyNCAwIDEgMSAwIDQ4IDI0IDI0IDAgMSAxIDAtNDh6bTQ4IDI0YTI0IDI0IDAgMSAxIDQ4IDAgMjQgMjQgMCAxIDEgLTQ4IDB6TTY0IDI4OGMtMzUuMyAwLTY0IDI4LjctNjQgNjR2NjRjMCAzNS4zIDI4LjcgNjQgNjQgNjRINDQ4YzM1LjMgMCA2NC0yOC43IDY0LTY0VjM1MmMwLTM1LjMtMjguNy02NC02NC02NEg2NHptMjgwIDcyYTI0IDI0IDAgMSAxIDAgNDggMjQgMjQgMCAxIDEgMC00OHptNTYgMjRhMjQgMjQgMCAxIDEgNDggMCAyNCAyNCAwIDEgMSAtNDggMHoiLz48L3N2Zz4=;fontFamily=Roboto;" parent="1" vertex="1">
          <mxGeometry x="580" y="60" width="60" height="60" as="geometry" />
        </mxCell>
        <mxCell id="hHeAZSEnx0nBbeL7fITp-43" value="Canonical sources" style="text;html=1;strokeColor=none;fillColor=none;align=center;verticalAlign=middle;whiteSpace=wrap;rounded=0;fontFamily=Roboto;" parent="1" vertex="1">
          <mxGeometry x="70" y="30" width="120" height="30" as="geometry" />
        </mxCell>
        <mxCell id="hHeAZSEnx0nBbeL7fITp-44" value="Alternative sources" style="text;html=1;strokeColor=none;fillColor=none;align=center;verticalAlign=middle;whiteSpace=wrap;rounded=0;fontFamily=Roboto;" parent="1" vertex="1">
          <mxGeometry x="550" y="30" width="120" height="20" as="geometry" />
        </mxCell>
        <mxCell id="hHeAZSEnx0nBbeL7fITp-46" value="(e.g. archives)" style="text;html=1;strokeColor=none;fillColor=none;align=center;verticalAlign=middle;whiteSpace=wrap;rounded=0;fontColor=#666666;fontSize=9;fontFamily=Roboto;" parent="1" vertex="1">
          <mxGeometry x="570" y="50" width="80" height="10" as="geometry" />
        </mxCell>
        <mxCell id="hHeAZSEnx0nBbeL7fITp-90" style="edgeStyle=orthogonalEdgeStyle;rounded=0;orthogonalLoop=1;jettySize=auto;html=1;entryX=0;entryY=0.5;entryDx=0;entryDy=0;endArrow=none;endFill=0;fontFamily=Roboto;" parent="1" source="hHeAZSEnx0nBbeL7fITp-47" target="hHeAZSEnx0nBbeL7fITp-79" edge="1">
          <mxGeometry relative="1" as="geometry">
            <Array as="points">
              <mxPoint x="400" y="330" />
            </Array>
          </mxGeometry>
        </mxCell>
        <mxCell id="hHeAZSEnx0nBbeL7fITp-47" value="Forecast information" style="rounded=0;whiteSpace=wrap;html=1;fillColor=#dae8fc;strokeColor=#6c8ebf;fontFamily=Roboto;" parent="1" vertex="1">
          <mxGeometry x="390" y="180" width="140" height="40" as="geometry" />
        </mxCell>
        <mxCell id="hHeAZSEnx0nBbeL7fITp-48" value="Archive information" style="rounded=0;whiteSpace=wrap;html=1;fillColor=#dae8fc;strokeColor=#6c8ebf;fontFamily=Roboto;" parent="1" vertex="1">
          <mxGeometry x="550" y="180" width="140" height="40" as="geometry" />
        </mxCell>
        <mxCell id="hHeAZSEnx0nBbeL7fITp-56" style="edgeStyle=orthogonalEdgeStyle;rounded=0;orthogonalLoop=1;jettySize=auto;html=1;entryX=0;entryY=0.5;entryDx=0;entryDy=0;endArrow=none;endFill=0;strokeColor=#808080;fontFamily=Roboto;" parent="1" target="hHeAZSEnx0nBbeL7fITp-59" edge="1">
          <mxGeometry relative="1" as="geometry">
            <mxPoint x="70" y="210" as="sourcePoint" />
            <Array as="points">
              <mxPoint x="70" y="220" />
            </Array>
          </mxGeometry>
        </mxCell>
        <mxCell id="hHeAZSEnx0nBbeL7fITp-57" style="edgeStyle=orthogonalEdgeStyle;rounded=0;orthogonalLoop=1;jettySize=auto;html=1;entryX=0;entryY=0.5;entryDx=0;entryDy=0;endArrow=none;endFill=0;strokeColor=#808080;fontFamily=Roboto;" parent="1" target="hHeAZSEnx0nBbeL7fITp-60" edge="1">
          <mxGeometry relative="1" as="geometry">
            <mxPoint x="70" y="210" as="sourcePoint" />
            <Array as="points">
              <mxPoint x="70" y="240" />
            </Array>
          </mxGeometry>
        </mxCell>
        <mxCell id="hHeAZSEnx0nBbeL7fITp-58" style="edgeStyle=orthogonalEdgeStyle;rounded=0;orthogonalLoop=1;jettySize=auto;html=1;entryX=0;entryY=0.5;entryDx=0;entryDy=0;endArrow=none;endFill=0;strokeColor=#808080;fontFamily=Roboto;" parent="1" target="hHeAZSEnx0nBbeL7fITp-61" edge="1">
          <mxGeometry relative="1" as="geometry">
            <mxPoint x="70" y="210" as="sourcePoint" />
            <Array as="points">
              <mxPoint x="70" y="260" />
            </Array>
          </mxGeometry>
        </mxCell>
        <mxCell id="hHeAZSEnx0nBbeL7fITp-59" value="Issuing agency" style="text;html=1;strokeColor=none;fillColor=none;align=left;verticalAlign=middle;whiteSpace=wrap;rounded=0;spacingLeft=8;fontColor=#808080;fontFamily=Roboto;" parent="1" vertex="1">
          <mxGeometry x="80" y="210" width="120" height="20" as="geometry" />
        </mxCell>
        <mxCell id="hHeAZSEnx0nBbeL7fITp-60" value="Storm category" style="text;html=1;strokeColor=none;fillColor=none;align=left;verticalAlign=middle;whiteSpace=wrap;rounded=0;spacingLeft=8;fontColor=#808080;fontFamily=Roboto;" parent="1" vertex="1">
          <mxGeometry x="80" y="230" width="120" height="20" as="geometry" />
        </mxCell>
        <mxCell id="hHeAZSEnx0nBbeL7fITp-61" value="Wind speeds" style="text;html=1;strokeColor=none;fillColor=none;align=left;verticalAlign=middle;whiteSpace=wrap;rounded=0;spacingLeft=8;fontColor=#808080;fontFamily=Roboto;" parent="1" vertex="1">
          <mxGeometry x="80" y="250" width="120" height="20" as="geometry" />
        </mxCell>
        <mxCell id="hHeAZSEnx0nBbeL7fITp-64" value="&lt;i&gt;etc...&lt;/i&gt;" style="text;html=1;strokeColor=none;fillColor=none;align=left;verticalAlign=middle;whiteSpace=wrap;rounded=0;spacingLeft=8;fontColor=#808080;fontFamily=Roboto;" parent="1" vertex="1">
          <mxGeometry x="80" y="270" width="120" height="20" as="geometry" />
        </mxCell>
        <mxCell id="hHeAZSEnx0nBbeL7fITp-67" style="edgeStyle=orthogonalEdgeStyle;rounded=0;orthogonalLoop=1;jettySize=auto;html=1;entryX=0;entryY=0.5;entryDx=0;entryDy=0;strokeColor=#808080;endArrow=none;endFill=0;fontFamily=Roboto;" parent="1" target="hHeAZSEnx0nBbeL7fITp-74" edge="1">
          <mxGeometry relative="1" as="geometry">
            <mxPoint x="230" y="210" as="sourcePoint" />
            <Array as="points">
              <mxPoint x="230" y="280" />
            </Array>
          </mxGeometry>
        </mxCell>
        <mxCell id="hHeAZSEnx0nBbeL7fITp-68" style="edgeStyle=orthogonalEdgeStyle;rounded=0;orthogonalLoop=1;jettySize=auto;html=1;entryX=0;entryY=0.5;entryDx=0;entryDy=0;endArrow=none;endFill=0;strokeColor=#808080;fontFamily=Roboto;" parent="1" target="hHeAZSEnx0nBbeL7fITp-71" edge="1">
          <mxGeometry relative="1" as="geometry">
            <mxPoint x="230" y="210" as="sourcePoint" />
            <Array as="points">
              <mxPoint x="230" y="220" />
            </Array>
          </mxGeometry>
        </mxCell>
        <mxCell id="hHeAZSEnx0nBbeL7fITp-69" style="edgeStyle=orthogonalEdgeStyle;rounded=0;orthogonalLoop=1;jettySize=auto;html=1;entryX=0;entryY=0.5;entryDx=0;entryDy=0;endArrow=none;endFill=0;strokeColor=#808080;fontFamily=Roboto;" parent="1" target="hHeAZSEnx0nBbeL7fITp-72" edge="1">
          <mxGeometry relative="1" as="geometry">
            <mxPoint x="230" y="210" as="sourcePoint" />
            <Array as="points">
              <mxPoint x="230" y="240" />
            </Array>
          </mxGeometry>
        </mxCell>
        <mxCell id="hHeAZSEnx0nBbeL7fITp-70" style="edgeStyle=orthogonalEdgeStyle;rounded=0;orthogonalLoop=1;jettySize=auto;html=1;entryX=0;entryY=0.5;entryDx=0;entryDy=0;endArrow=none;endFill=0;strokeColor=#808080;fontFamily=Roboto;" parent="1" target="hHeAZSEnx0nBbeL7fITp-73" edge="1">
          <mxGeometry relative="1" as="geometry">
            <mxPoint x="230" y="210" as="sourcePoint" />
            <Array as="points">
              <mxPoint x="230" y="260" />
            </Array>
          </mxGeometry>
        </mxCell>
        <mxCell id="hHeAZSEnx0nBbeL7fITp-71" value="Issuing agency" style="text;html=1;strokeColor=none;fillColor=none;align=left;verticalAlign=middle;whiteSpace=wrap;rounded=0;spacingLeft=8;fontColor=#808080;fontFamily=Roboto;" parent="1" vertex="1">
          <mxGeometry x="240" y="210" width="120" height="20" as="geometry" />
        </mxCell>
        <mxCell id="hHeAZSEnx0nBbeL7fITp-72" value="Storm category" style="text;html=1;strokeColor=none;fillColor=none;align=left;verticalAlign=middle;whiteSpace=wrap;rounded=0;spacingLeft=8;fontColor=#808080;fontFamily=Roboto;" parent="1" vertex="1">
          <mxGeometry x="240" y="230" width="120" height="20" as="geometry" />
        </mxCell>
        <mxCell id="hHeAZSEnx0nBbeL7fITp-73" value="Wind speeds" style="text;html=1;strokeColor=none;fillColor=none;align=left;verticalAlign=middle;whiteSpace=wrap;rounded=0;spacingLeft=8;fontColor=#808080;fontFamily=Roboto;" parent="1" vertex="1">
          <mxGeometry x="240" y="250" width="120" height="20" as="geometry" />
        </mxCell>
        <mxCell id="hHeAZSEnx0nBbeL7fITp-74" value="&lt;i&gt;etc...&lt;/i&gt;" style="text;html=1;strokeColor=none;fillColor=none;align=left;verticalAlign=middle;whiteSpace=wrap;rounded=0;spacingLeft=8;fontColor=#808080;fontFamily=Roboto;" parent="1" vertex="1">
          <mxGeometry x="240" y="270" width="120" height="20" as="geometry" />
        </mxCell>
        <mxCell id="hHeAZSEnx0nBbeL7fITp-76" value="At 09Z (17:00 PHT)" style="text;html=1;strokeColor=none;fillColor=none;align=left;verticalAlign=middle;whiteSpace=wrap;rounded=0;spacingLeft=8;fontColor=#000000;fontFamily=Roboto;" parent="1" vertex="1">
          <mxGeometry x="410" y="220" width="120" height="20" as="geometry" />
        </mxCell>
        <mxCell id="hHeAZSEnx0nBbeL7fITp-79" value="At 12Z (20:00 PHT)" style="text;html=1;strokeColor=none;fillColor=none;align=left;verticalAlign=middle;whiteSpace=wrap;rounded=0;spacingLeft=8;fontColor=#000000;fontFamily=Roboto;" parent="1" vertex="1">
          <mxGeometry x="410" y="320" width="120" height="20" as="geometry" />
        </mxCell>
        <mxCell id="hHeAZSEnx0nBbeL7fITp-81" style="edgeStyle=orthogonalEdgeStyle;rounded=0;orthogonalLoop=1;jettySize=auto;html=1;entryX=0;entryY=0.5;entryDx=0;entryDy=0;strokeColor=#808080;endArrow=none;endFill=0;fontFamily=Roboto;" parent="1" edge="1">
          <mxGeometry relative="1" as="geometry">
            <mxPoint x="430" y="240" as="sourcePoint" />
            <Array as="points">
              <mxPoint x="430" y="310" />
            </Array>
            <mxPoint x="440" y="310" as="targetPoint" />
          </mxGeometry>
        </mxCell>
        <mxCell id="hHeAZSEnx0nBbeL7fITp-82" style="edgeStyle=orthogonalEdgeStyle;rounded=0;orthogonalLoop=1;jettySize=auto;html=1;entryX=0;entryY=0.5;entryDx=0;entryDy=0;endArrow=none;endFill=0;strokeColor=#808080;fontFamily=Roboto;" parent="1" target="hHeAZSEnx0nBbeL7fITp-85" edge="1">
          <mxGeometry relative="1" as="geometry">
            <mxPoint x="430" y="240" as="sourcePoint" />
            <Array as="points">
              <mxPoint x="430" y="250" />
            </Array>
          </mxGeometry>
        </mxCell>
        <mxCell id="hHeAZSEnx0nBbeL7fITp-83" style="edgeStyle=orthogonalEdgeStyle;rounded=0;orthogonalLoop=1;jettySize=auto;html=1;entryX=0;entryY=0.5;entryDx=0;entryDy=0;endArrow=none;endFill=0;strokeColor=#808080;fontFamily=Roboto;" parent="1" target="hHeAZSEnx0nBbeL7fITp-86" edge="1">
          <mxGeometry relative="1" as="geometry">
            <mxPoint x="430" y="240" as="sourcePoint" />
            <Array as="points">
              <mxPoint x="430" y="270" />
            </Array>
          </mxGeometry>
        </mxCell>
        <mxCell id="hHeAZSEnx0nBbeL7fITp-84" style="edgeStyle=orthogonalEdgeStyle;rounded=0;orthogonalLoop=1;jettySize=auto;html=1;entryX=0;entryY=0.5;entryDx=0;entryDy=0;endArrow=none;endFill=0;strokeColor=#808080;fontFamily=Roboto;" parent="1" target="hHeAZSEnx0nBbeL7fITp-87" edge="1">
          <mxGeometry relative="1" as="geometry">
            <mxPoint x="430" y="240" as="sourcePoint" />
            <Array as="points">
              <mxPoint x="430" y="290" />
            </Array>
          </mxGeometry>
        </mxCell>
        <mxCell id="hHeAZSEnx0nBbeL7fITp-85" value="Issuing agency" style="text;html=1;strokeColor=none;fillColor=none;align=left;verticalAlign=middle;whiteSpace=wrap;rounded=0;spacingLeft=8;fontColor=#808080;fontFamily=Roboto;" parent="1" vertex="1">
          <mxGeometry x="440" y="240" width="120" height="20" as="geometry" />
        </mxCell>
        <mxCell id="hHeAZSEnx0nBbeL7fITp-86" value="Storm category" style="text;html=1;strokeColor=none;fillColor=none;align=left;verticalAlign=middle;whiteSpace=wrap;rounded=0;spacingLeft=8;fontColor=#808080;fontFamily=Roboto;" parent="1" vertex="1">
          <mxGeometry x="440" y="260" width="120" height="20" as="geometry" />
        </mxCell>
        <mxCell id="hHeAZSEnx0nBbeL7fITp-87" value="Wind speeds" style="text;html=1;strokeColor=none;fillColor=none;align=left;verticalAlign=middle;whiteSpace=wrap;rounded=0;spacingLeft=8;fontColor=#808080;fontFamily=Roboto;" parent="1" vertex="1">
          <mxGeometry x="440" y="280" width="120" height="20" as="geometry" />
        </mxCell>
        <mxCell id="hHeAZSEnx0nBbeL7fITp-88" value="&lt;i&gt;etc...&lt;/i&gt;" style="text;html=1;strokeColor=none;fillColor=none;align=left;verticalAlign=middle;whiteSpace=wrap;rounded=0;spacingLeft=8;fontColor=#808080;fontFamily=Roboto;" parent="1" vertex="1">
          <mxGeometry x="440" y="300" width="120" height="20" as="geometry" />
        </mxCell>
        <mxCell id="hHeAZSEnx0nBbeL7fITp-93" style="edgeStyle=orthogonalEdgeStyle;rounded=0;orthogonalLoop=1;jettySize=auto;html=1;entryX=0;entryY=0.5;entryDx=0;entryDy=0;strokeColor=#808080;endArrow=none;endFill=0;fontFamily=Roboto;" parent="1" target="hHeAZSEnx0nBbeL7fITp-94" edge="1">
          <mxGeometry relative="1" as="geometry">
            <mxPoint x="430" y="340" as="sourcePoint" />
            <Array as="points">
              <mxPoint x="430" y="350" />
            </Array>
          </mxGeometry>
        </mxCell>
        <mxCell id="hHeAZSEnx0nBbeL7fITp-94" value="&lt;i&gt;etc...&lt;/i&gt;" style="text;html=1;strokeColor=none;fillColor=none;align=left;verticalAlign=middle;whiteSpace=wrap;rounded=0;spacingLeft=8;fontColor=#808080;fontFamily=Roboto;" parent="1" vertex="1">
          <mxGeometry x="440" y="340" width="120" height="20" as="geometry" />
        </mxCell>
        <mxCell id="hHeAZSEnx0nBbeL7fITp-95" style="edgeStyle=orthogonalEdgeStyle;rounded=0;orthogonalLoop=1;jettySize=auto;html=1;entryX=0;entryY=0.5;entryDx=0;entryDy=0;endArrow=none;endFill=0;strokeColor=#000000;fontFamily=Roboto;" parent="1" target="hHeAZSEnx0nBbeL7fITp-97" edge="1">
          <mxGeometry relative="1" as="geometry">
            <mxPoint x="560.03" y="220" as="sourcePoint" />
            <Array as="points">
              <mxPoint x="560" y="230" />
            </Array>
          </mxGeometry>
        </mxCell>
        <mxCell id="hHeAZSEnx0nBbeL7fITp-96" style="edgeStyle=orthogonalEdgeStyle;rounded=0;orthogonalLoop=1;jettySize=auto;html=1;entryX=0;entryY=0.5;entryDx=0;entryDy=0;endArrow=none;endFill=0;fontFamily=Roboto;" parent="1" target="hHeAZSEnx0nBbeL7fITp-98" edge="1">
          <mxGeometry relative="1" as="geometry">
            <mxPoint x="560.03" y="230" as="sourcePoint" />
            <Array as="points">
              <mxPoint x="560" y="330" />
            </Array>
          </mxGeometry>
        </mxCell>
        <mxCell id="hHeAZSEnx0nBbeL7fITp-97" value="At 03Z (11:00 PHT)" style="text;html=1;strokeColor=none;fillColor=none;align=left;verticalAlign=middle;whiteSpace=wrap;rounded=0;spacingLeft=8;fontColor=#000000;fontFamily=Roboto;" parent="1" vertex="1">
          <mxGeometry x="570" y="220" width="120" height="20" as="geometry" />
        </mxCell>
        <mxCell id="hHeAZSEnx0nBbeL7fITp-98" value="At 00Z (08:00 PHT)" style="text;html=1;strokeColor=none;fillColor=none;align=left;verticalAlign=middle;whiteSpace=wrap;rounded=0;spacingLeft=8;fontColor=#000000;fontFamily=Roboto;" parent="1" vertex="1">
          <mxGeometry x="570" y="320" width="120" height="20" as="geometry" />
        </mxCell>
        <mxCell id="hHeAZSEnx0nBbeL7fITp-99" style="edgeStyle=orthogonalEdgeStyle;rounded=0;orthogonalLoop=1;jettySize=auto;html=1;entryX=0;entryY=0.5;entryDx=0;entryDy=0;strokeColor=#808080;endArrow=none;endFill=0;fontFamily=Roboto;" parent="1" edge="1">
          <mxGeometry relative="1" as="geometry">
            <mxPoint x="590" y="240" as="sourcePoint" />
            <Array as="points">
              <mxPoint x="590" y="310" />
            </Array>
            <mxPoint x="600" y="310" as="targetPoint" />
          </mxGeometry>
        </mxCell>
        <mxCell id="hHeAZSEnx0nBbeL7fITp-100" style="edgeStyle=orthogonalEdgeStyle;rounded=0;orthogonalLoop=1;jettySize=auto;html=1;entryX=0;entryY=0.5;entryDx=0;entryDy=0;endArrow=none;endFill=0;strokeColor=#808080;fontFamily=Roboto;" parent="1" target="hHeAZSEnx0nBbeL7fITp-103" edge="1">
          <mxGeometry relative="1" as="geometry">
            <mxPoint x="590" y="240" as="sourcePoint" />
            <Array as="points">
              <mxPoint x="590" y="250" />
            </Array>
          </mxGeometry>
        </mxCell>
        <mxCell id="hHeAZSEnx0nBbeL7fITp-101" style="edgeStyle=orthogonalEdgeStyle;rounded=0;orthogonalLoop=1;jettySize=auto;html=1;entryX=0;entryY=0.5;entryDx=0;entryDy=0;endArrow=none;endFill=0;strokeColor=#808080;fontFamily=Roboto;" parent="1" target="hHeAZSEnx0nBbeL7fITp-104" edge="1">
          <mxGeometry relative="1" as="geometry">
            <mxPoint x="590" y="240" as="sourcePoint" />
            <Array as="points">
              <mxPoint x="590" y="270" />
            </Array>
          </mxGeometry>
        </mxCell>
        <mxCell id="hHeAZSEnx0nBbeL7fITp-102" style="edgeStyle=orthogonalEdgeStyle;rounded=0;orthogonalLoop=1;jettySize=auto;html=1;entryX=0;entryY=0.5;entryDx=0;entryDy=0;endArrow=none;endFill=0;strokeColor=#808080;fontFamily=Roboto;" parent="1" target="hHeAZSEnx0nBbeL7fITp-105" edge="1">
          <mxGeometry relative="1" as="geometry">
            <mxPoint x="590" y="240" as="sourcePoint" />
            <Array as="points">
              <mxPoint x="590" y="290" />
            </Array>
          </mxGeometry>
        </mxCell>
        <mxCell id="hHeAZSEnx0nBbeL7fITp-103" value="Issuing agency" style="text;html=1;strokeColor=none;fillColor=none;align=left;verticalAlign=middle;whiteSpace=wrap;rounded=0;spacingLeft=8;fontColor=#808080;fontFamily=Roboto;" parent="1" vertex="1">
          <mxGeometry x="600" y="240" width="100" height="20" as="geometry" />
        </mxCell>
        <mxCell id="hHeAZSEnx0nBbeL7fITp-104" value="Storm category" style="text;html=1;strokeColor=none;fillColor=none;align=left;verticalAlign=middle;whiteSpace=wrap;rounded=0;spacingLeft=8;fontColor=#808080;fontFamily=Roboto;" parent="1" vertex="1">
          <mxGeometry x="600" y="260" width="100" height="20" as="geometry" />
        </mxCell>
        <mxCell id="hHeAZSEnx0nBbeL7fITp-105" value="Wind speeds" style="text;html=1;strokeColor=none;fillColor=none;align=left;verticalAlign=middle;whiteSpace=wrap;rounded=0;spacingLeft=8;fontColor=#808080;fontFamily=Roboto;" parent="1" vertex="1">
          <mxGeometry x="600" y="280" width="100" height="20" as="geometry" />
        </mxCell>
        <mxCell id="hHeAZSEnx0nBbeL7fITp-106" value="&lt;i&gt;etc...&lt;/i&gt;" style="text;html=1;strokeColor=none;fillColor=none;align=left;verticalAlign=middle;whiteSpace=wrap;rounded=0;spacingLeft=8;fontColor=#808080;fontFamily=Roboto;" parent="1" vertex="1">
          <mxGeometry x="600" y="300" width="100" height="20" as="geometry" />
        </mxCell>
        <mxCell id="hHeAZSEnx0nBbeL7fITp-107" style="edgeStyle=orthogonalEdgeStyle;rounded=0;orthogonalLoop=1;jettySize=auto;html=1;entryX=0;entryY=0.5;entryDx=0;entryDy=0;strokeColor=#808080;endArrow=none;endFill=0;fontFamily=Roboto;" parent="1" target="hHeAZSEnx0nBbeL7fITp-108" edge="1">
          <mxGeometry relative="1" as="geometry">
            <mxPoint x="590" y="340" as="sourcePoint" />
            <Array as="points">
              <mxPoint x="590" y="350" />
            </Array>
          </mxGeometry>
        </mxCell>
        <mxCell id="hHeAZSEnx0nBbeL7fITp-108" value="&lt;i&gt;etc...&lt;/i&gt;" style="text;html=1;strokeColor=none;fillColor=none;align=left;verticalAlign=middle;whiteSpace=wrap;rounded=0;spacingLeft=8;fontColor=#808080;fontFamily=Roboto;" parent="1" vertex="1">
          <mxGeometry x="600" y="340" width="100" height="20" as="geometry" />
        </mxCell>
        <mxCell id="hHeAZSEnx0nBbeL7fITp-110" value="Event metadata" style="rounded=0;whiteSpace=wrap;html=1;fillColor=#d5e8d4;strokeColor=#82b366;fontFamily=Roboto;dashed=1;" parent="1" vertex="1">
          <mxGeometry x="220" y="300" width="140" height="40" as="geometry" />
        </mxCell>
        <mxCell id="hHeAZSEnx0nBbeL7fITp-111" style="edgeStyle=orthogonalEdgeStyle;rounded=0;orthogonalLoop=1;jettySize=auto;html=1;entryX=0;entryY=0.5;entryDx=0;entryDy=0;endArrow=none;endFill=0;strokeColor=#808080;fontFamily=Roboto;" parent="1" target="hHeAZSEnx0nBbeL7fITp-114" edge="1">
          <mxGeometry relative="1" as="geometry">
            <mxPoint x="230" y="340" as="sourcePoint" />
            <Array as="points">
              <mxPoint x="230" y="350" />
            </Array>
          </mxGeometry>
        </mxCell>
        <mxCell id="hHeAZSEnx0nBbeL7fITp-112" style="edgeStyle=orthogonalEdgeStyle;rounded=0;orthogonalLoop=1;jettySize=auto;html=1;entryX=0;entryY=0.5;entryDx=0;entryDy=0;endArrow=none;endFill=0;strokeColor=#808080;fontFamily=Roboto;" parent="1" target="hHeAZSEnx0nBbeL7fITp-115" edge="1">
          <mxGeometry relative="1" as="geometry">
            <mxPoint x="230" y="340" as="sourcePoint" />
            <Array as="points">
              <mxPoint x="230" y="370" />
            </Array>
          </mxGeometry>
        </mxCell>
        <mxCell id="hHeAZSEnx0nBbeL7fITp-113" style="edgeStyle=orthogonalEdgeStyle;rounded=0;orthogonalLoop=1;jettySize=auto;html=1;entryX=0;entryY=0.5;entryDx=0;entryDy=0;endArrow=none;endFill=0;strokeColor=#808080;fontFamily=Roboto;" parent="1" target="hHeAZSEnx0nBbeL7fITp-116" edge="1">
          <mxGeometry relative="1" as="geometry">
            <mxPoint x="230" y="340" as="sourcePoint" />
            <Array as="points">
              <mxPoint x="230" y="390" />
            </Array>
          </mxGeometry>
        </mxCell>
        <mxCell id="hHeAZSEnx0nBbeL7fITp-114" value="Local name" style="text;html=1;strokeColor=none;fillColor=none;align=left;verticalAlign=middle;whiteSpace=wrap;rounded=0;spacingLeft=8;fontColor=#808080;fontFamily=Roboto;" parent="1" vertex="1">
          <mxGeometry x="240" y="340" width="120" height="20" as="geometry" />
        </mxCell>
        <mxCell id="hHeAZSEnx0nBbeL7fITp-115" value="International name" style="text;html=1;strokeColor=none;fillColor=none;align=left;verticalAlign=middle;whiteSpace=wrap;rounded=0;spacingLeft=8;fontColor=#808080;fontFamily=Roboto;" parent="1" vertex="1">
          <mxGeometry x="240" y="360" width="120" height="20" as="geometry" />
        </mxCell>
        <mxCell id="hHeAZSEnx0nBbeL7fITp-116" value="Identifiers" style="text;html=1;strokeColor=none;fillColor=none;align=left;verticalAlign=middle;whiteSpace=wrap;rounded=0;spacingLeft=8;fontColor=#808080;fontFamily=Roboto;" parent="1" vertex="1">
          <mxGeometry x="240" y="380" width="120" height="20" as="geometry" />
        </mxCell>
        <mxCell id="hHeAZSEnx0nBbeL7fITp-117" value="Object" style="rounded=0;whiteSpace=wrap;html=1;fontFamily=Roboto;fillColor=#f5f5f5;fontColor=#333333;strokeColor=#666666;" parent="1" vertex="1">
          <mxGeometry x="130" y="630" width="90" height="30" as="geometry" />
        </mxCell>
        <mxCell id="hHeAZSEnx0nBbeL7fITp-118" value="Legend" style="text;html=1;strokeColor=none;fillColor=none;align=center;verticalAlign=middle;whiteSpace=wrap;rounded=0;fontFamily=Roboto;" parent="1" vertex="1">
          <mxGeometry x="60" y="630" width="60" height="30" as="geometry" />
        </mxCell>
        <mxCell id="hHeAZSEnx0nBbeL7fITp-119" value="Grouping" style="rounded=0;whiteSpace=wrap;html=1;fontFamily=Roboto;fillColor=#f5f5f5;fontColor=#333333;strokeColor=#666666;dashed=1;" parent="1" vertex="1">
          <mxGeometry x="350" y="630" width="90" height="30" as="geometry" />
        </mxCell>
        <mxCell id="hHeAZSEnx0nBbeL7fITp-121" value="Parent object contains a sub-object" style="text;html=1;strokeColor=none;fillColor=none;align=center;verticalAlign=top;whiteSpace=wrap;rounded=0;fontSize=11;spacing=0;spacingLeft=2;spacingRight=2;fontColor=#666666;fontFamily=Roboto;" parent="1" vertex="1">
          <mxGeometry x="130" y="670" width="90" height="50" as="geometry" />
        </mxCell>
        <mxCell id="hHeAZSEnx0nBbeL7fITp-122" value="Parent object contains described fields (no actual nesting)" style="text;html=1;strokeColor=none;fillColor=none;align=center;verticalAlign=top;whiteSpace=wrap;rounded=0;fontSize=11;spacing=0;spacingLeft=2;spacingRight=2;fontColor=#666666;fontFamily=Roboto;" parent="1" vertex="1">
          <mxGeometry x="340" y="670" width="110" height="60" as="geometry" />
        </mxCell>
        <mxCell id="hHeAZSEnx0nBbeL7fITp-124" value="" style="endArrow=classic;html=1;rounded=0;fontFamily=Roboto;" parent="1" edge="1">
          <mxGeometry width="50" height="50" relative="1" as="geometry">
            <mxPoint x="460" y="644.5799999999999" as="sourcePoint" />
            <mxPoint x="510" y="645" as="targetPoint" />
          </mxGeometry>
        </mxCell>
        <mxCell id="hHeAZSEnx0nBbeL7fITp-125" value="Information&lt;br&gt;access" style="text;html=1;strokeColor=none;fillColor=none;align=center;verticalAlign=top;whiteSpace=wrap;rounded=0;fontSize=11;spacing=0;spacingLeft=2;spacingRight=2;fontColor=#666666;fontFamily=Roboto;" parent="1" vertex="1">
          <mxGeometry x="460" y="665" width="50" height="60" as="geometry" />
        </mxCell>
        <mxCell id="hHeAZSEnx0nBbeL7fITp-146" style="edgeStyle=orthogonalEdgeStyle;rounded=0;orthogonalLoop=1;jettySize=auto;html=1;endArrow=none;endFill=0;fontFamily=Roboto;" parent="1" source="hHeAZSEnx0nBbeL7fITp-131" target="hHeAZSEnx0nBbeL7fITp-142" edge="1">
          <mxGeometry relative="1" as="geometry">
            <Array as="points">
              <mxPoint x="220" y="430" />
              <mxPoint x="220" y="430" />
            </Array>
          </mxGeometry>
        </mxCell>
        <mxCell id="hHeAZSEnx0nBbeL7fITp-147" style="edgeStyle=orthogonalEdgeStyle;rounded=0;orthogonalLoop=1;jettySize=auto;html=1;endArrow=none;endFill=0;fontFamily=Roboto;" parent="1" source="hHeAZSEnx0nBbeL7fITp-131" target="hHeAZSEnx0nBbeL7fITp-143" edge="1">
          <mxGeometry relative="1" as="geometry">
            <Array as="points">
              <mxPoint x="220" y="430" />
              <mxPoint x="220" y="475" />
            </Array>
          </mxGeometry>
        </mxCell>
        <mxCell id="hHeAZSEnx0nBbeL7fITp-148" style="edgeStyle=orthogonalEdgeStyle;rounded=0;orthogonalLoop=1;jettySize=auto;html=1;entryX=0;entryY=0.5;entryDx=0;entryDy=0;endArrow=none;endFill=0;fontFamily=Roboto;" parent="1" source="hHeAZSEnx0nBbeL7fITp-131" target="hHeAZSEnx0nBbeL7fITp-144" edge="1">
          <mxGeometry relative="1" as="geometry">
            <Array as="points">
              <mxPoint x="220" y="430" />
              <mxPoint x="220" y="515" />
            </Array>
          </mxGeometry>
        </mxCell>
        <mxCell id="hHeAZSEnx0nBbeL7fITp-149" style="edgeStyle=orthogonalEdgeStyle;rounded=0;orthogonalLoop=1;jettySize=auto;html=1;entryX=0;entryY=0.5;entryDx=0;entryDy=0;endArrow=none;endFill=0;fontFamily=Roboto;" parent="1" source="hHeAZSEnx0nBbeL7fITp-131" target="hHeAZSEnx0nBbeL7fITp-145" edge="1">
          <mxGeometry relative="1" as="geometry">
            <Array as="points">
              <mxPoint x="220" y="430" />
              <mxPoint x="220" y="555" />
            </Array>
          </mxGeometry>
        </mxCell>
        <mxCell id="hHeAZSEnx0nBbeL7fITp-131" value="Warnings" style="rounded=0;whiteSpace=wrap;html=1;fillColor=#e1d5e7;strokeColor=#9673a6;fontFamily=Roboto;" parent="1" vertex="1">
          <mxGeometry x="60" y="410" width="140" height="40" as="geometry" />
        </mxCell>
        <mxCell id="hHeAZSEnx0nBbeL7fITp-137" style="edgeStyle=orthogonalEdgeStyle;rounded=0;orthogonalLoop=1;jettySize=auto;html=1;entryX=0;entryY=0.5;entryDx=0;entryDy=0;endArrow=none;endFill=0;strokeColor=#808080;fontFamily=Roboto;" parent="1" target="hHeAZSEnx0nBbeL7fITp-140" edge="1">
          <mxGeometry relative="1" as="geometry">
            <mxPoint x="70" y="450" as="sourcePoint" />
            <Array as="points">
              <mxPoint x="70" y="460" />
            </Array>
          </mxGeometry>
        </mxCell>
        <mxCell id="hHeAZSEnx0nBbeL7fITp-138" style="edgeStyle=orthogonalEdgeStyle;rounded=0;orthogonalLoop=1;jettySize=auto;html=1;entryX=0;entryY=0.5;entryDx=0;entryDy=0;endArrow=none;endFill=0;strokeColor=#808080;fontFamily=Roboto;" parent="1" target="hHeAZSEnx0nBbeL7fITp-141" edge="1">
          <mxGeometry relative="1" as="geometry">
            <mxPoint x="70" y="450" as="sourcePoint" />
            <Array as="points">
              <mxPoint x="70" y="480" />
            </Array>
          </mxGeometry>
        </mxCell>
        <mxCell id="hHeAZSEnx0nBbeL7fITp-140" value="Valid since" style="text;html=1;strokeColor=none;fillColor=none;align=left;verticalAlign=middle;whiteSpace=wrap;rounded=0;spacingLeft=8;fontColor=#808080;fontFamily=Roboto;" parent="1" vertex="1">
          <mxGeometry x="80" y="450" width="120" height="20" as="geometry" />
        </mxCell>
        <mxCell id="hHeAZSEnx0nBbeL7fITp-141" value="Valid until" style="text;html=1;strokeColor=none;fillColor=none;align=left;verticalAlign=middle;whiteSpace=wrap;rounded=0;spacingLeft=8;fontColor=#808080;fontFamily=Roboto;" parent="1" vertex="1">
          <mxGeometry x="80" y="470" width="120" height="20" as="geometry" />
        </mxCell>
        <mxCell id="hHeAZSEnx0nBbeL7fITp-142" value="1" style="rounded=0;whiteSpace=wrap;html=1;fontStyle=1;fontFamily=Roboto;fillColor=#dae8fc;strokeColor=#6c8ebf;" parent="1" vertex="1">
          <mxGeometry x="230" y="415" width="30" height="30" as="geometry" />
        </mxCell>
        <mxCell id="hHeAZSEnx0nBbeL7fITp-143" value="2" style="rounded=0;whiteSpace=wrap;html=1;fontStyle=1;fontFamily=Roboto;fillColor=#fff2cc;strokeColor=#d6b656;" parent="1" vertex="1">
          <mxGeometry x="230" y="455" width="30" height="30" as="geometry" />
        </mxCell>
        <mxCell id="hHeAZSEnx0nBbeL7fITp-144" value="3" style="rounded=0;whiteSpace=wrap;html=1;fontStyle=1;fontFamily=Roboto;fillColor=#ffe6cc;strokeColor=#d79b00;" parent="1" vertex="1">
          <mxGeometry x="230" y="495" width="30" height="30" as="geometry" />
        </mxCell>
        <mxCell id="hHeAZSEnx0nBbeL7fITp-145" value="4" style="rounded=0;whiteSpace=wrap;html=1;fontStyle=1;fontFamily=Roboto;fillColor=#f8cecc;strokeColor=#b85450;" parent="1" vertex="1">
          <mxGeometry x="230" y="535" width="30" height="30" as="geometry" />
        </mxCell>
        <mxCell id="hHeAZSEnx0nBbeL7fITp-150" value="Array" style="rounded=0;whiteSpace=wrap;html=1;fontFamily=Roboto;fillColor=#f5f5f5;fontColor=#333333;strokeColor=#666666;" parent="1" vertex="1">
          <mxGeometry x="240" y="630" width="90" height="30" as="geometry" />
        </mxCell>
        <mxCell id="hHeAZSEnx0nBbeL7fITp-151" value="Parent object contains an array" style="text;html=1;strokeColor=none;fillColor=none;align=center;verticalAlign=top;whiteSpace=wrap;rounded=0;fontSize=11;spacing=0;spacingLeft=2;spacingRight=2;fontColor=#666666;fontFamily=Roboto;" parent="1" vertex="1">
          <mxGeometry x="240" y="670" width="90" height="50" as="geometry" />
        </mxCell>
        <mxCell id="hHeAZSEnx0nBbeL7fITp-152" value="Array" style="rounded=0;whiteSpace=wrap;html=1;fontFamily=Roboto;fillColor=#f5f5f5;fontColor=#333333;strokeColor=#666666;" parent="1" vertex="1">
          <mxGeometry x="245" y="635" width="90" height="30" as="geometry" />
        </mxCell>
        <mxCell id="hHeAZSEnx0nBbeL7fITp-153" value="Camiguin" style="rounded=0;whiteSpace=wrap;html=1;fillColor=#dae8fc;strokeColor=#6c8ebf;fontFamily=Roboto;" parent="1" vertex="1">
          <mxGeometry x="340" y="414" width="120" height="40" as="geometry" />
        </mxCell>
        <mxCell id="hHeAZSEnx0nBbeL7fITp-162" style="edgeStyle=orthogonalEdgeStyle;rounded=0;orthogonalLoop=1;jettySize=auto;html=1;endArrow=none;endFill=0;fontFamily=Roboto;" parent="1" source="hHeAZSEnx0nBbeL7fITp-154" target="hHeAZSEnx0nBbeL7fITp-153" edge="1">
          <mxGeometry relative="1" as="geometry">
            <Array as="points">
              <mxPoint x="330" y="434" />
              <mxPoint x="330" y="434" />
            </Array>
          </mxGeometry>
        </mxCell>
        <mxCell id="hHeAZSEnx0nBbeL7fITp-154" value="1" style="rounded=0;whiteSpace=wrap;html=1;fontStyle=1;fontFamily=Roboto;fillColor=#dae8fc;strokeColor=#6c8ebf;" parent="1" vertex="1">
          <mxGeometry x="234" y="419" width="30" height="30" as="geometry" />
        </mxCell>
        <mxCell id="hHeAZSEnx0nBbeL7fITp-163" style="edgeStyle=orthogonalEdgeStyle;rounded=0;orthogonalLoop=1;jettySize=auto;html=1;endArrow=none;endFill=0;fontFamily=Roboto;" parent="1" source="hHeAZSEnx0nBbeL7fITp-156" target="hHeAZSEnx0nBbeL7fITp-159" edge="1">
          <mxGeometry relative="1" as="geometry">
            <Array as="points">
              <mxPoint x="500" y="474" />
              <mxPoint x="500" y="410" />
            </Array>
          </mxGeometry>
        </mxCell>
        <mxCell id="hHeAZSEnx0nBbeL7fITp-156" value="2" style="rounded=0;whiteSpace=wrap;html=1;fontStyle=1;fontFamily=Roboto;fillColor=#fff2cc;strokeColor=#d6b656;" parent="1" vertex="1">
          <mxGeometry x="234" y="459" width="30" height="30" as="geometry" />
        </mxCell>
        <mxCell id="hHeAZSEnx0nBbeL7fITp-164" style="edgeStyle=orthogonalEdgeStyle;rounded=0;orthogonalLoop=1;jettySize=auto;html=1;endArrow=none;endFill=0;fontFamily=Roboto;" parent="1" source="hHeAZSEnx0nBbeL7fITp-157" target="hHeAZSEnx0nBbeL7fITp-160" edge="1">
          <mxGeometry relative="1" as="geometry">
            <Array as="points">
              <mxPoint x="340" y="514" />
              <mxPoint x="340" y="514" />
            </Array>
          </mxGeometry>
        </mxCell>
        <mxCell id="hHeAZSEnx0nBbeL7fITp-157" value="3" style="rounded=0;whiteSpace=wrap;html=1;fontStyle=1;fontFamily=Roboto;fillColor=#ffe6cc;strokeColor=#d79b00;" parent="1" vertex="1">
          <mxGeometry x="234" y="499" width="30" height="30" as="geometry" />
        </mxCell>
        <mxCell id="hHeAZSEnx0nBbeL7fITp-165" style="edgeStyle=orthogonalEdgeStyle;rounded=0;orthogonalLoop=1;jettySize=auto;html=1;endArrow=none;endFill=0;fontFamily=Roboto;" parent="1" edge="1">
          <mxGeometry relative="1" as="geometry">
            <mxPoint x="264" y="553.67" as="sourcePoint" />
            <mxPoint x="560" y="553.67" as="targetPoint" />
            <Array as="points">
              <mxPoint x="410" y="553.67" />
              <mxPoint x="410" y="553.67" />
            </Array>
          </mxGeometry>
        </mxCell>
        <mxCell id="hHeAZSEnx0nBbeL7fITp-158" value="4" style="rounded=0;whiteSpace=wrap;html=1;fontStyle=1;fontFamily=Roboto;fillColor=#f8cecc;strokeColor=#b85450;" parent="1" vertex="1">
          <mxGeometry x="234" y="539" width="30" height="30" as="geometry" />
        </mxCell>
        <mxCell id="hHeAZSEnx0nBbeL7fITp-175" style="edgeStyle=orthogonalEdgeStyle;rounded=0;orthogonalLoop=1;jettySize=auto;html=1;entryX=0;entryY=0.5;entryDx=0;entryDy=0;endArrow=none;endFill=0;fontFamily=Roboto;" parent="1" source="hHeAZSEnx0nBbeL7fITp-159" target="hHeAZSEnx0nBbeL7fITp-174" edge="1">
          <mxGeometry relative="1" as="geometry">
            <Array as="points">
              <mxPoint x="530" y="450" />
              <mxPoint x="530" y="450" />
            </Array>
          </mxGeometry>
        </mxCell>
        <mxCell id="hHeAZSEnx0nBbeL7fITp-159" value="Cebu" style="rounded=0;whiteSpace=wrap;html=1;fillColor=#fff2cc;strokeColor=#d6b656;fontFamily=Roboto;" parent="1" vertex="1">
          <mxGeometry x="520" y="390" width="120" height="40" as="geometry" />
        </mxCell>
        <mxCell id="hHeAZSEnx0nBbeL7fITp-160" value="Nueva Ecija" style="rounded=0;whiteSpace=wrap;html=1;fillColor=#ffe6cc;strokeColor=#d79b00;fontFamily=Roboto;" parent="1" vertex="1">
          <mxGeometry x="340" y="494" width="120" height="40" as="geometry" />
        </mxCell>
        <mxCell id="hHeAZSEnx0nBbeL7fITp-161" value="Metro Manila" style="rounded=0;whiteSpace=wrap;html=1;fillColor=#f8cecc;strokeColor=#b85450;fontFamily=Roboto;" parent="1" vertex="1">
          <mxGeometry x="560" y="534" width="120" height="40" as="geometry" />
        </mxCell>
        <mxCell id="hHeAZSEnx0nBbeL7fITp-166" value="PSGC: 1300000000" style="text;html=1;strokeColor=none;fillColor=none;align=center;verticalAlign=top;whiteSpace=wrap;rounded=0;spacingLeft=0;fontColor=#808080;fontFamily=Roboto;fontSize=9;fontStyle=2;labelPosition=center;verticalLabelPosition=middle;spacing=-3;" parent="1" vertex="1">
          <mxGeometry x="560" y="574" width="120" height="15" as="geometry" />
        </mxCell>
        <mxCell id="hHeAZSEnx0nBbeL7fITp-169" value="PSGC: 0304900000" style="text;html=1;strokeColor=none;fillColor=none;align=center;verticalAlign=top;whiteSpace=wrap;rounded=0;spacingLeft=0;fontColor=#808080;fontFamily=Roboto;fontSize=9;fontStyle=2;labelPosition=center;verticalLabelPosition=middle;spacing=-3;" parent="1" vertex="1">
          <mxGeometry x="340" y="534" width="120" height="15" as="geometry" />
        </mxCell>
        <mxCell id="hHeAZSEnx0nBbeL7fITp-171" value="PSGC: 1001800000" style="text;html=1;strokeColor=none;fillColor=none;align=center;verticalAlign=top;whiteSpace=wrap;rounded=0;spacingLeft=0;fontColor=#808080;fontFamily=Roboto;fontSize=9;fontStyle=2;labelPosition=center;verticalLabelPosition=middle;spacing=-3;" parent="1" vertex="1">
          <mxGeometry x="340" y="454" width="120" height="15" as="geometry" />
        </mxCell>
        <mxCell id="hHeAZSEnx0nBbeL7fITp-172" value="PSGC: 0702200000" style="text;html=1;strokeColor=none;fillColor=none;align=center;verticalAlign=top;whiteSpace=wrap;rounded=0;spacingLeft=0;fontColor=#808080;fontFamily=Roboto;fontSize=9;fontStyle=2;labelPosition=center;verticalLabelPosition=middle;spacing=-3;" parent="1" vertex="1">
          <mxGeometry x="520" y="430" width="120" height="15" as="geometry" />
        </mxCell>
        <mxCell id="hHeAZSEnx0nBbeL7fITp-177" style="edgeStyle=orthogonalEdgeStyle;rounded=0;orthogonalLoop=1;jettySize=auto;html=1;endArrow=none;endFill=0;fontFamily=Roboto;" parent="1" source="hHeAZSEnx0nBbeL7fITp-174" target="hHeAZSEnx0nBbeL7fITp-176" edge="1">
          <mxGeometry relative="1" as="geometry" />
        </mxCell>
        <mxCell id="hHeAZSEnx0nBbeL7fITp-174" value="includes&amp;nbsp;» areas" style="rounded=0;whiteSpace=wrap;html=1;fontSize=10;fontFamily=Roboto;" parent="1" vertex="1">
          <mxGeometry x="550" y="449" width="110" height="20" as="geometry" />
        </mxCell>
        <mxCell id="hHeAZSEnx0nBbeL7fITp-176" value="Madridejos" style="rounded=0;whiteSpace=wrap;html=1;fillColor=#fff2cc;strokeColor=#d6b656;fontFamily=Roboto;" parent="1" vertex="1">
          <mxGeometry x="550" y="480" width="110" height="30" as="geometry" />
        </mxCell>
        <mxCell id="hHeAZSEnx0nBbeL7fITp-178" value="PSGC: 0702228000" style="text;html=1;strokeColor=none;fillColor=none;align=center;verticalAlign=top;whiteSpace=wrap;rounded=0;spacingLeft=0;fontColor=#808080;fontFamily=Roboto;fontSize=9;fontStyle=2;labelPosition=center;verticalLabelPosition=middle;spacing=-3;" parent="1" vertex="1">
          <mxGeometry x="545" y="510" width="120" height="15" as="geometry" />
        </mxCell>
      </root>
    </mxGraphModel>
  </diagram>
</mxfile>
